# xmcd
#
# Track frame offsets: 
#        150
#        13987
#        32182
#        50805
#        74175
#        96292
#        118057
#        135735
#        152417
#        175887
#
# Disc length: 2570 seconds
#
# Revision: 0
# Processed by: cddbd v1.5.1PL0 Copyright (c) Steve Scherf et al.
# Submitted via: ExactAudioCopy v0.95a5
#
DISCID=940a080a
DTITLE=The James Cotton Band - High Energy
DYEAR=1900
DGENRE=Blues
TTITLE0=Hot 'n Cold
TTITLE1=Chicken Heads
TTITLE2=I Got A Feelin'
TTITLE3=Hard Time Blues
TTITLE4=Weather Report (The Weather Man Said)
TTITLE5=Keep Cooking Mama
TTITLE6=Fannie Mae
TTITLE7=Caldonia
TTITLE8=Rock'n Roll Music (Ain't Nothing New)
TTITLE9=James' Theme
EXTD=
EXTT0=
EXTT1=
EXTT2=
EXTT3=
EXTT4=
EXTT5=
EXTT6=
EXTT7=
EXTT8=
EXTT9=
PLAYORDER=
